<?xml version="1.0" encoding="UTF-8"?>
<svg id="Layer_2" data-name="Layer 2" xmlns="http://www.w3.org/2000/svg" xmlns:xlink="http://www.w3.org/1999/xlink" viewBox="0 0 445.82 935.67">
  <defs>
    <style>
      .cls-1 {
        stroke-width: 3px;
      }

      .cls-1, .cls-2, .cls-3, .cls-4, .cls-5, .cls-6, .cls-7, .cls-8 {
        stroke: #000;
      }

      .cls-1, .cls-2, .cls-9, .cls-5, .cls-7, .cls-8 {
        fill: none;
      }

      .cls-2 {
        stroke-width: .3px;
      }

      .cls-10, .cls-11, .cls-12 {
        fill: #000;
      }

      .cls-10, .cls-9 {
        stroke-width: 0px;
      }

      .cls-13 {
        letter-spacing: -.03em;
      }

      .cls-3 {
        fill: url(#_638);
      }

      .cls-3, .cls-4, .cls-6 {
        stroke-width: 2px;
      }

      .cls-14 {
        letter-spacing: 0em;
      }

      .cls-15 {
        letter-spacing: 0em;
      }

      .cls-16 {
        letter-spacing: 0em;
      }

      .cls-17 {
        letter-spacing: 0em;
      }

      .cls-11 {
        font-size: 21px;
      }

      .cls-11, .cls-12 {
        font-family: MyriadPro-Regular, 'Myriad Pro';
      }

      .cls-18 {
        letter-spacing: 0em;
      }

      .cls-19 {
        letter-spacing: -.01em;
      }

      .cls-20 {
        letter-spacing: 0em;
      }

      .cls-21 {
        letter-spacing: -.07em;
      }

      .cls-4 {
        fill: url(#_641);
      }

      .cls-5 {
        stroke-width: 4px;
      }

      .cls-12 {
        font-size: 20px;
      }

      .cls-22 {
        letter-spacing: -.04em;
      }

      .cls-23 {
        letter-spacing: 0em;
      }

      .cls-24 {
        letter-spacing: 0em;
      }

      .cls-6 {
        fill: url(#_619);
        isolation: isolate;
        opacity: .99;
      }

      .cls-7 {
        stroke-miterlimit: 10;
        stroke-width: 5px;
      }

      .cls-25 {
        letter-spacing: -.02em;
      }

      .cls-26 {
        letter-spacing: 0em;
      }

      .cls-27 {
        letter-spacing: 0em;
      }

      .cls-28 {
        letter-spacing: -.01em;
      }

      .cls-29 {
        letter-spacing: .01em;
      }

      .cls-30 {
        letter-spacing: -.01em;
      }

      .cls-31 {
        letter-spacing: -.03em;
      }

      .cls-8 {
        stroke-linecap: round;
        stroke-width: .7px;
      }

      .cls-32 {
        letter-spacing: .01em;
      }
    </style>
    <pattern id="_619" data-name=" 619" x="0" y="0" width="53.58" height="53.58" patternTransform="translate(14311.03 -29440.3) scale(1.99 -2)" patternUnits="userSpaceOnUse" viewBox="0 0 53.58 53.58">
      <g>
        <rect class="cls-9" width="53.58" height="53.58"/>
        <g>
          <rect class="cls-9" width="53.58" height="53.58"/>
          <line class="cls-2" x1="4.12" y1="51.75" y2="51.75"/>
          <line class="cls-2" x1="7.32" y1="51.75" x2="13.07" y2="51.75"/>
          <line class="cls-2" x1="16.24" y1="51.75" x2="21.98" y2="51.75"/>
          <line class="cls-2" x1="25.15" y1="51.75" x2="30.9" y2="51.75"/>
          <line class="cls-2" x1="34.07" y1="51.75" x2="39.82" y2="51.75"/>
          <line class="cls-2" x1="42.99" y1="51.75" x2="48.73" y2="51.75"/>
          <line class="cls-2" x1="51.9" y1="51.75" x2="53.58" y2="51.75"/>
          <line class="cls-2" x1="8.45" y1="48.61" x2="2.7" y2="48.61"/>
          <line class="cls-2" x1="17.36" y1="48.61" x2="11.62" y2="48.61"/>
          <line class="cls-2" x1="26.28" y1="48.61" x2="20.54" y2="48.61"/>
          <line class="cls-2" x1="35.2" y1="48.61" x2="29.45" y2="48.61"/>
          <line class="cls-2" x1="44.11" y1="48.61" x2="38.37" y2="48.61"/>
          <line class="cls-2" x1="47.29" y1="48.61" x2="53.03" y2="48.61"/>
          <line class="cls-2" x1="2.36" y1="45.65" y2="45.65"/>
          <line class="cls-2" x1="11.31" y1="45.65" x2="5.57" y2="45.65"/>
          <line class="cls-2" x1="14.49" y1="45.65" x2="20.23" y2="45.65"/>
          <line class="cls-2" x1="23.4" y1="45.65" x2="29.15" y2="45.65"/>
          <line class="cls-2" x1="32.32" y1="45.65" x2="38.06" y2="45.65"/>
          <line class="cls-2" x1="41.24" y1="45.65" x2="46.98" y2="45.65"/>
          <line class="cls-2" x1="50.15" y1="45.65" x2="53.58" y2="45.65"/>
          <line class="cls-2" x1="7.65" y1="42.84" x2="1.91" y2="42.84"/>
          <line class="cls-2" x1="16.57" y1="42.84" x2="10.82" y2="42.84"/>
          <line class="cls-2" x1="25.49" y1="42.84" x2="19.74" y2="42.84"/>
          <line class="cls-2" x1="34.4" y1="42.84" x2="28.66" y2="42.84"/>
          <line class="cls-2" x1="43.32" y1="42.84" x2="37.57" y2="42.84"/>
          <line class="cls-2" x1="52.23" y1="42.84" x2="46.49" y2="42.84"/>
          <line class="cls-2" x1="2.05" y1="39.87" y2="39.87"/>
          <line class="cls-2" x1="5.25" y1="39.87" x2="11" y2="39.87"/>
          <line class="cls-2" x1="19.91" y1="39.87" x2="14.17" y2="39.87"/>
          <line class="cls-2" x1="23.08" y1="39.87" x2="28.83" y2="39.87"/>
          <line class="cls-2" x1="32" y1="39.87" x2="37.75" y2="39.87"/>
          <line class="cls-2" x1="40.92" y1="39.87" x2="46.66" y2="39.87"/>
          <line class="cls-2" x1="49.83" y1="39.87" x2="53.58" y2="39.87"/>
          <line class="cls-2" y1="36.87" x2="-.16" y2="36.87"/>
          <line class="cls-2" x1="5.58" y1="36.87" y2="36.87"/>
          <line class="cls-2" x1="14.5" y1="36.87" x2="8.75" y2="36.87"/>
          <line class="cls-2" x1="23.42" y1="36.87" x2="17.67" y2="36.87"/>
          <line class="cls-2" x1="26.59" y1="36.87" x2="32.33" y2="36.87"/>
          <line class="cls-2" x1="35.5" y1="36.87" x2="41.25" y2="36.87"/>
          <line class="cls-2" x1="44.42" y1="36.87" x2="50.17" y2="36.87"/>
          <line class="cls-2" x1="53.34" y1="36.87" x2="53.58" y2="36.87"/>
          <line class="cls-2" x1="2.52" y1="33.98" y2="33.98"/>
          <line class="cls-2" x1="11.47" y1="33.98" x2="5.73" y2="33.98"/>
          <line class="cls-2" x1="20.39" y1="33.98" x2="14.64" y2="33.98"/>
          <line class="cls-2" x1="23.56" y1="33.98" x2="29.31" y2="33.98"/>
          <line class="cls-2" x1="32.48" y1="33.98" x2="38.22" y2="33.98"/>
          <line class="cls-2" x1="41.39" y1="33.98" x2="47.14" y2="33.98"/>
          <line class="cls-2" x1="50.31" y1="33.98" x2="53.58" y2="33.98"/>
          <line class="cls-2" x1="7.01" y1="30.79" x2="1.27" y2="30.79"/>
          <line class="cls-2" x1="15.93" y1="30.79" x2="10.19" y2="30.79"/>
          <line class="cls-2" x1="24.85" y1="30.79" x2="19.1" y2="30.79"/>
          <line class="cls-2" x1="28.02" y1="30.79" x2="33.76" y2="30.79"/>
          <line class="cls-2" x1="36.94" y1="30.79" x2="42.68" y2="30.79"/>
          <line class="cls-2" x1="45.85" y1="30.79" x2="51.6" y2="30.79"/>
          <line class="cls-2" x1="3.8" y1="27.82" y2="27.82"/>
          <line class="cls-2" x1="12.75" y1="27.82" x2="7" y2="27.82"/>
          <line class="cls-2" x1="15.92" y1="27.82" x2="21.66" y2="27.82"/>
          <line class="cls-2" x1="24.84" y1="27.82" x2="30.58" y2="27.82"/>
          <line class="cls-2" x1="39.5" y1="27.82" x2="33.75" y2="27.82"/>
          <line class="cls-2" x1="48.41" y1="27.82" x2="42.67" y2="27.82"/>
          <line class="cls-2" x1="51.59" y1="27.82" x2="53.58" y2="27.82"/>
          <line class="cls-2" x1="2.54" y1="24.68" x2="8.29" y2="24.68"/>
          <line class="cls-2" x1="17.21" y1="24.68" x2="11.46" y2="24.68"/>
          <line class="cls-2" x1="26.12" y1="24.68" x2="20.38" y2="24.68"/>
          <line class="cls-2" x1="29.29" y1="24.68" x2="35.04" y2="24.68"/>
          <line class="cls-2" x1="38.21" y1="24.68" x2="43.96" y2="24.68"/>
          <line class="cls-2" x1="47.13" y1="24.68" x2="52.87" y2="24.68"/>
          <line class="cls-2" x1="3.32" y1="21.88" y2="21.88"/>
          <line class="cls-2" x1="12.27" y1="21.88" x2="6.52" y2="21.88"/>
          <line class="cls-2" x1="21.19" y1="21.88" x2="15.44" y2="21.88"/>
          <line class="cls-2" x1="24.36" y1="21.88" x2="30.1" y2="21.88"/>
          <line class="cls-2" x1="33.27" y1="21.88" x2="39.02" y2="21.88"/>
          <line class="cls-2" x1="42.19" y1="21.88" x2="47.94" y2="21.88"/>
          <line class="cls-2" x1="51.11" y1="21.88" x2="53.58" y2="21.88"/>
          <line class="cls-2" x1="7.17" y1="18.74" x2="1.43" y2="18.74"/>
          <line class="cls-2" x1="16.09" y1="18.74" x2="10.35" y2="18.74"/>
          <line class="cls-2" x1="25.01" y1="18.74" x2="19.26" y2="18.74"/>
          <line class="cls-2" x1="28.18" y1="18.74" x2="33.92" y2="18.74"/>
          <line class="cls-2" x1="42.84" y1="18.74" x2="37.1" y2="18.74"/>
          <line class="cls-2" x1="46.01" y1="18.74" x2="51.76" y2="18.74"/>
          <line class="cls-2" x1="2.52" y1="15.77" y2="15.77"/>
          <line class="cls-2" x1="5.73" y1="15.77" x2="11.47" y2="15.77"/>
          <line class="cls-2" x1="14.64" y1="15.77" x2="20.39" y2="15.77"/>
          <line class="cls-2" x1="23.56" y1="15.77" x2="29.31" y2="15.77"/>
          <line class="cls-2" x1="32.48" y1="15.77" x2="38.22" y2="15.77"/>
          <line class="cls-2" x1="41.39" y1="15.77" x2="47.14" y2="15.77"/>
          <line class="cls-2" x1="50.31" y1="15.77" x2="53.58" y2="15.77"/>
          <line class="cls-2" x1="6.38" y1="12.8" x2=".63" y2="12.8"/>
          <line class="cls-2" x1="15.29" y1="12.8" x2="9.55" y2="12.8"/>
          <line class="cls-2" x1="24.21" y1="12.8" x2="18.47" y2="12.8"/>
          <line class="cls-2" x1="33.13" y1="12.8" x2="27.38" y2="12.8"/>
          <line class="cls-2" x1="36.3" y1="12.8" x2="42.04" y2="12.8"/>
          <line class="cls-2" x1="50.96" y1="12.8" x2="45.22" y2="12.8"/>
          <line class="cls-2" x1="3.48" y1="10" y2="10"/>
          <line class="cls-2" x1="12.43" y1="10" x2="6.68" y2="10"/>
          <line class="cls-2" x1="15.6" y1="10" x2="21.34" y2="10"/>
          <line class="cls-2" x1="24.52" y1="10" x2="30.26" y2="10"/>
          <line class="cls-2" x1="33.43" y1="10" x2="39.18" y2="10"/>
          <line class="cls-2" x1="42.35" y1="10" x2="48.09" y2="10"/>
          <line class="cls-2" x1="51.27" y1="10" x2="53.58" y2="10"/>
          <line class="cls-2" x1="8.61" y1="6.87" x2="2.86" y2="6.87"/>
          <line class="cls-2" x1="17.52" y1="6.87" x2="11.78" y2="6.87"/>
          <line class="cls-2" x1="26.44" y1="6.87" x2="20.7" y2="6.87"/>
          <line class="cls-2" x1="35.36" y1="6.87" x2="29.61" y2="6.87"/>
          <line class="cls-2" x1="38.53" y1="6.87" x2="44.27" y2="6.87"/>
          <line class="cls-2" x1="47.45" y1="6.87" x2="53.19" y2="6.87"/>
          <line class="cls-2" y1="3.9" x2="5.07" y2="3.9"/>
          <line class="cls-2" x1="8.28" y1="3.9" x2="14.02" y2="3.9"/>
          <line class="cls-2" x1="17.19" y1="3.9" x2="22.94" y2="3.9"/>
          <line class="cls-2" x1="26.11" y1="3.9" x2="31.85" y2="3.9"/>
          <line class="cls-2" x1="35.03" y1="3.9" x2="40.77" y2="3.9"/>
          <line class="cls-2" x1="43.94" y1="3.9" x2="49.69" y2="3.9"/>
          <line class="cls-2" x1="52.86" y1="3.9" x2="53.58" y2="3.9"/>
          <line class="cls-2" x1="8.93" y1=".93" x2="3.18" y2=".93"/>
          <line class="cls-2" x1="17.84" y1=".93" x2="12.1" y2=".93"/>
          <line class="cls-2" x1="26.76" y1=".93" x2="21.01" y2=".93"/>
          <line class="cls-2" x1="35.68" y1=".93" x2="29.93" y2=".93"/>
          <line class="cls-2" x1="44.59" y1=".93" x2="38.85" y2=".93"/>
          <line class="cls-2" x1="53.51" y1=".93" x2="47.76" y2=".93"/>
          <line class="cls-8" x1="5.76" y1="51.68" x2="5.76" y2="51.68"/>
          <line class="cls-8" x1="14.73" y1="51.68" x2="14.73" y2="51.68"/>
          <line class="cls-8" x1="23.65" y1="51.68" x2="23.65" y2="51.68"/>
          <line class="cls-8" x1="32.59" y1="51.68" x2="32.59" y2="51.68"/>
          <line class="cls-8" x1="41.48" y1="51.68" x2="41.48" y2="51.68"/>
          <line class="cls-8" x1="50.43" y1="51.68" x2="50.43" y2="51.68"/>
          <line class="cls-8" x1="1.06" y1="48.61" x2="1.06" y2="48.61"/>
          <line class="cls-8" x1="10.04" y1="48.61" x2="10.04" y2="48.61"/>
          <line class="cls-8" x1="18.95" y1="48.61" x2="18.95" y2="48.61"/>
          <line class="cls-8" x1="27.9" y1="48.61" x2="27.9" y2="48.61"/>
          <line class="cls-8" x1="36.78" y1="48.61" x2="36.78" y2="48.61"/>
          <line class="cls-8" x1="45.73" y1="48.61" x2="45.73" y2="48.61"/>
          <line class="cls-8" x1="4.03" y1="45.61" x2="4.03" y2="45.61"/>
          <line class="cls-8" x1="13.01" y1="45.61" x2="13.01" y2="45.61"/>
          <line class="cls-8" x1="21.93" y1="45.61" x2="21.93" y2="45.61"/>
          <line class="cls-8" x1="30.87" y1="45.61" x2="30.87" y2="45.61"/>
          <line class="cls-8" x1="39.76" y1="45.61" x2="39.76" y2="45.61"/>
          <line class="cls-8" x1="48.7" y1="45.61" x2="48.7" y2="45.61"/>
          <line class="cls-8" x1=".39" y1="42.77" x2=".39" y2="42.77"/>
          <line class="cls-8" x1="9.37" y1="42.77" x2="9.37" y2="42.77"/>
          <line class="cls-8" x1="18.29" y1="42.77" x2="18.29" y2="42.77"/>
          <line class="cls-8" x1="27.23" y1="42.77" x2="27.23" y2="42.77"/>
          <line class="cls-8" x1="36.12" y1="42.77" x2="36.12" y2="42.77"/>
          <line class="cls-8" x1="45.06" y1="42.77" x2="45.06" y2="42.77"/>
          <line class="cls-8" x1="3.62" y1="39.86" x2="3.62" y2="39.86"/>
          <line class="cls-8" x1="12.59" y1="39.86" x2="12.59" y2="39.86"/>
          <line class="cls-8" x1="21.51" y1="39.86" x2="21.51" y2="39.86"/>
          <line class="cls-8" x1="30.45" y1="39.86" x2="30.45" y2="39.86"/>
          <line class="cls-8" x1="39.34" y1="39.86" x2="39.34" y2="39.86"/>
          <line class="cls-8" x1="48.29" y1="39.86" x2="48.29" y2="39.86"/>
          <line class="cls-8" x1="7.17" y1="36.86" x2="7.17" y2="36.86"/>
          <line class="cls-8" x1="16.15" y1="36.86" x2="16.15" y2="36.86"/>
          <line class="cls-8" x1="25.06" y1="36.86" x2="25.06" y2="36.86"/>
          <line class="cls-8" x1="34.01" y1="36.86" x2="34.01" y2="36.86"/>
          <line class="cls-8" x1="42.89" y1="36.86" x2="42.89" y2="36.86"/>
          <line class="cls-8" x1="51.84" y1="36.86" x2="51.84" y2="36.86"/>
          <line class="cls-8" x1="4.06" y1="34.02" x2="4.06" y2="34.02"/>
          <line class="cls-8" x1="13.04" y1="34.02" x2="13.04" y2="34.02"/>
          <line class="cls-8" x1="21.95" y1="34.02" x2="21.95" y2="34.02"/>
          <line class="cls-8" x1="30.9" y1="34.02" x2="30.9" y2="34.02"/>
          <line class="cls-8" x1="39.78" y1="34.02" x2="39.78" y2="34.02"/>
          <line class="cls-8" x1="48.73" y1="34.02" x2="48.73" y2="34.02"/>
          <line class="cls-8" x1="8.65" y1="30.86" x2="8.65" y2="30.86"/>
          <line class="cls-8" x1="17.62" y1="30.86" x2="17.62" y2="30.86"/>
          <line class="cls-8" x1="26.54" y1="30.86" x2="26.54" y2="30.86"/>
          <line class="cls-8" x1="35.48" y1="30.86" x2="35.48" y2="30.86"/>
          <line class="cls-8" x1="44.37" y1="30.86" x2="44.37" y2="30.86"/>
          <line class="cls-8" x1="53.32" y1="30.86" x2="53.32" y2="30.86"/>
          <line class="cls-8" x1="5.34" y1="27.77" x2="5.34" y2="27.77"/>
          <line class="cls-8" x1="14.32" y1="27.77" x2="14.32" y2="27.77"/>
          <line class="cls-8" x1="23.23" y1="27.77" x2="23.23" y2="27.77"/>
          <line class="cls-8" x1="32.18" y1="27.77" x2="32.18" y2="27.77"/>
          <line class="cls-8" x1="41.06" y1="27.77" x2="41.06" y2="27.77"/>
          <line class="cls-8" x1="50.01" y1="27.77" x2="50.01" y2="27.77"/>
          <line class="cls-8" x1="9.76" y1="24.63" x2="9.76" y2="24.63"/>
          <line class="cls-8" x1="1" y1="24.63" x2="1" y2="24.63"/>
          <line class="cls-8" x1="18.73" y1="24.63" x2="18.73" y2="24.63"/>
          <line class="cls-8" x1="27.65" y1="24.63" x2="27.65" y2="24.63"/>
          <line class="cls-8" x1="36.59" y1="24.63" x2="36.59" y2="24.63"/>
          <line class="cls-8" x1="45.48" y1="24.63" x2="45.48" y2="24.63"/>
          <line class="cls-8" x1="4.96" y1="21.88" x2="4.96" y2="21.88"/>
          <line class="cls-8" x1="13.93" y1="21.88" x2="13.93" y2="21.88"/>
          <line class="cls-8" x1="22.85" y1="21.88" x2="22.85" y2="21.88"/>
          <line class="cls-8" x1="31.79" y1="21.88" x2="31.79" y2="21.88"/>
          <line class="cls-8" x1="40.68" y1="21.88" x2="40.68" y2="21.88"/>
          <line class="cls-8" x1="49.63" y1="21.88" x2="49.63" y2="21.88"/>
          <line class="cls-8" x1="8.56" y1="18.69" x2="8.56" y2="18.69"/>
          <line class="cls-8" x1="17.54" y1="18.69" x2="17.54" y2="18.69"/>
          <line class="cls-8" x1="26.45" y1="18.69" x2="26.45" y2="18.69"/>
          <line class="cls-8" x1="35.4" y1="18.69" x2="35.4" y2="18.69"/>
          <line class="cls-8" x1="44.28" y1="18.69" x2="44.28" y2="18.69"/>
          <line class="cls-8" x1="53.23" y1="18.69" x2="53.23" y2="18.69"/>
          <line class="cls-8" x1="4.14" y1="15.69" x2="4.14" y2="15.69"/>
          <line class="cls-8" x1="13.12" y1="15.69" x2="13.12" y2="15.69"/>
          <line class="cls-8" x1="22.04" y1="15.69" x2="22.04" y2="15.69"/>
          <line class="cls-8" x1="30.98" y1="15.69" x2="30.98" y2="15.69"/>
          <line class="cls-8" x1="39.87" y1="15.69" x2="39.87" y2="15.69"/>
          <line class="cls-8" x1="48.81" y1="15.69" x2="48.81" y2="15.69"/>
          <line class="cls-8" x1="7.89" y1="12.77" x2="7.89" y2="12.77"/>
          <line class="cls-8" x1="16.87" y1="12.77" x2="16.87" y2="12.77"/>
          <line class="cls-8" x1="25.79" y1="12.77" x2="25.79" y2="12.77"/>
          <line class="cls-8" x1="34.73" y1="12.77" x2="34.73" y2="12.77"/>
          <line class="cls-8" x1="43.62" y1="12.77" x2="43.62" y2="12.77"/>
          <line class="cls-8" x1="52.56" y1="12.77" x2="52.56" y2="12.77"/>
          <line class="cls-8" x1="5.06" y1="9.94" x2="5.06" y2="9.94"/>
          <line class="cls-8" x1="14.04" y1="9.94" x2="14.04" y2="9.94"/>
          <line class="cls-8" x1="22.95" y1="9.94" x2="22.95" y2="9.94"/>
          <line class="cls-8" x1="31.9" y1="9.94" x2="31.9" y2="9.94"/>
          <line class="cls-8" x1="40.78" y1="9.94" x2="40.78" y2="9.94"/>
          <line class="cls-8" x1="49.73" y1="9.94" x2="49.73" y2="9.94"/>
          <line class="cls-8" x1="1.23" y1="6.83" x2="1.23" y2="6.83"/>
          <line class="cls-8" x1="10.2" y1="6.83" x2="10.2" y2="6.83"/>
          <line class="cls-8" x1="19.12" y1="6.83" x2="19.12" y2="6.83"/>
          <line class="cls-8" x1="28.06" y1="6.83" x2="28.06" y2="6.83"/>
          <line class="cls-8" x1="36.95" y1="6.83" x2="36.95" y2="6.83"/>
          <line class="cls-8" x1="45.9" y1="6.83" x2="45.9" y2="6.83"/>
          <line class="cls-8" x1="6.64" y1="3.86" x2="6.64" y2="3.86"/>
          <line class="cls-8" x1="15.62" y1="3.86" x2="15.62" y2="3.86"/>
          <line class="cls-8" x1="24.54" y1="3.86" x2="24.54" y2="3.86"/>
          <line class="cls-8" x1="33.48" y1="3.86" x2="33.48" y2="3.86"/>
          <line class="cls-8" x1="42.37" y1="3.86" x2="42.37" y2="3.86"/>
          <line class="cls-8" x1="51.31" y1="3.86" x2="51.31" y2="3.86"/>
          <line class="cls-8" x1="1.48" y1=".86" x2="1.48" y2=".86"/>
          <line class="cls-8" x1="10.45" y1=".86" x2="10.45" y2=".86"/>
          <line class="cls-8" x1="19.37" y1=".86" x2="19.37" y2=".86"/>
          <line class="cls-8" x1="28.31" y1=".86" x2="28.31" y2=".86"/>
          <line class="cls-8" x1="37.2" y1=".86" x2="37.2" y2=".86"/>
          <line class="cls-8" x1="46.15" y1=".86" x2="46.15" y2=".86"/>
        </g>
      </g>
    </pattern>
    <pattern id="_638" data-name=" 638" x="0" y="0" width="54.24" height="54.12" patternTransform="translate(14380.16 -29354.08) scale(2 -2)" patternUnits="userSpaceOnUse" viewBox="0 0 54.24 54.12">
      <g>
        <rect class="cls-9" width="54.24" height="54.12"/>
        <g>
          <rect class="cls-9" width="54.24" height="54.12"/>
          <line class="cls-2" x1=".05" y1="50.37" x2="54.18" y2="50.37"/>
          <line class="cls-2" x1=".05" y1="46.19" x2="54.18" y2="46.19"/>
          <line class="cls-2" x1=".05" y1="42.01" x2="54.18" y2="42.01"/>
          <line class="cls-2" x1=".05" y1="12.39" x2="54.24" y2="12.39"/>
          <line class="cls-2" x1=".05" y1="8.62" x2="54.18" y2="8.62"/>
          <line class="cls-2" x1=".05" y1="37.99" x2="54.18" y2="37.99"/>
          <line class="cls-2" x1=".05" y1="34.71" x2="54.18" y2="34.71"/>
          <line class="cls-2" x1=".05" y1="31.28" x2="54.18" y2="31.28"/>
          <line class="cls-2" x1=".05" y1="27.23" x2="54.18" y2="27.23"/>
          <line class="cls-2" x1=".05" y1="23.43" x2="54.18" y2="23.43"/>
          <line class="cls-2" x1=".05" y1="19.23" x2="54.24" y2="19.23"/>
          <line class="cls-2" x1=".05" y1="16.01" x2="54.18" y2="16.01"/>
          <line class="cls-2" x1=".05" y1=".83" x2="54.18" y2=".83"/>
          <line class="cls-2" x1="5.98" y1="54.12" x2="5.98" y2="50.37"/>
          <line class="cls-2" x1="18.73" y1="54.12" x2="18.73" y2="50.37"/>
          <line class="cls-2" x1="32.23" y1="54.12" x2="32.23" y2="50.37"/>
          <line class="cls-2" x1="46.6" y1="54.12" x2="46.6" y2="50.37"/>
          <line class="cls-2" x1="5.98" y1=".84" x2="5.98"/>
          <line class="cls-2" x1="18.73" y1=".84" x2="18.73"/>
          <line class="cls-2" x1="32.23" y1=".84" x2="32.23"/>
          <line class="cls-2" x1="46.6" y1=".84" x2="46.6"/>
          <line class="cls-2" x1="12.65" y1="50.43" x2="12.65" y2="46.21"/>
          <line class="cls-2" x1="27.53" y1="50.43" x2="27.53" y2="46.21"/>
          <line class="cls-2" x1="41.15" y1="50.43" x2="41.15" y2="46.21"/>
          <line class="cls-2" x1="53.98" y1="50.43" x2="53.98" y2="46.21"/>
          <line class="cls-2" x1="7.09" y1="46.07" x2="7.09" y2="42.02"/>
          <line class="cls-2" x1="20.34" y1="46.07" x2="20.34" y2="42.02"/>
          <line class="cls-2" x1="33.9" y1="46.07" x2="33.9" y2="42.02"/>
          <line class="cls-2" x1="48.84" y1="46.07" x2="48.84" y2="42.02"/>
          <line class="cls-2" x1="40.22" y1="42.02" x2="40.22" y2="38.02"/>
          <line class="cls-2" x1="26.84" y1="42.02" x2="26.84" y2="38.02"/>
          <line class="cls-2" x1="11.97" y1="42.02" x2="11.97" y2="38.02"/>
          <line class="cls-2" x1="53.47" y1="42.02" x2="53.47" y2="38.02"/>
          <line class="cls-2" x1="46.6" y1="38.02" x2="46.6" y2="34.72"/>
          <line class="cls-2" x1="31.98" y1="38.02" x2="31.98" y2="34.72"/>
          <line class="cls-2" x1="18.73" y1="38.02" x2="18.73" y2="34.72"/>
          <line class="cls-2" x1="5.98" y1="38.02" x2="5.98" y2="34.72"/>
          <line class="cls-2" x1="12.53" y1="34.72" x2="12.53" y2="31.29"/>
          <line class="cls-2" x1="27.53" y1="34.72" x2="27.53" y2="31.29"/>
          <line class="cls-2" x1="41.28" y1="34.72" x2="41.28" y2="31.29"/>
          <line class="cls-2" x1="54.03" y1="34.72" x2="54.03" y2="31.29"/>
          <line class="cls-2" x1="6.72" y1="31.29" x2="6.72" y2="27.24"/>
          <line class="cls-2" x1="20.22" y1="31.29" x2="20.22" y2="27.24"/>
          <line class="cls-2" x1="33.84" y1="31.29" x2="33.84" y2="27.24"/>
          <line class="cls-2" x1="48.72" y1="31.29" x2="48.72" y2="27.24"/>
          <line class="cls-2" x1="40.09" y1="27.18" x2="40.09" y2="23.44"/>
          <line class="cls-2" x1="26.77" y1="27.18" x2="26.77" y2="23.44"/>
          <line class="cls-2" x1="11.77" y1="27.18" x2="11.77" y2="23.44"/>
          <line class="cls-2" x1="53.32" y1="27.18" x2="53.32" y2="23.44"/>
          <line class="cls-2" x1="5.58" y1="23.38" x2="5.58" y2="19.24"/>
          <line class="cls-2" x1="18.58" y1="23.38" x2="18.58" y2="19.24"/>
          <line class="cls-2" x1="32.2" y1="23.38" x2="32.2" y2="19.24"/>
          <line class="cls-2" x1="46.45" y1="23.38" x2="46.45" y2="19.24"/>
          <line class="cls-2" x1="42.25" y1="19.18" x2="42.25" y2="16.02"/>
          <line class="cls-2" x1="28.1" y1="19.18" x2="28.1" y2="16.02"/>
          <line class="cls-2" x1="12.98" y1="19.18" x2="12.98" y2="16.02"/>
          <line class="cls-2" x1=".56" y1="19.18" x2=".56" y2="16.02"/>
          <line class="cls-2" x1="6.94" y1="15.96" x2="6.94" y2="12.39"/>
          <line class="cls-2" x1="20.19" y1="15.96" x2="20.19" y2="12.39"/>
          <line class="cls-2" x1="33.81" y1="15.96" x2="33.81" y2="12.39"/>
          <line class="cls-2" x1="48.69" y1="15.96" x2="48.69" y2="12.39"/>
          <line class="cls-2" x1="40.34" y1="12.34" x2="40.34" y2="8.58"/>
          <line class="cls-2" x1="26.46" y1="12.34" x2="26.46" y2="8.58"/>
          <line class="cls-2" x1="11.91" y1="12.34" x2="11.91" y2="8.58"/>
          <line class="cls-2" x1="53.79" y1="12.34" x2="53.79" y2="8.58"/>
          <line class="cls-2" x1=".05" y1="4.21" x2="54.18" y2="4.21"/>
          <line class="cls-2" x1="10.35" y1="4.23" x2="10.35" y2=".77"/>
          <line class="cls-2" x1="24.79" y1="4.23" x2="24.79" y2=".77"/>
          <line class="cls-2" x1="38.41" y1="4.23" x2="38.41" y2=".77"/>
          <line class="cls-2" x1="51.79" y1="4.23" x2="51.79" y2=".77"/>
          <line class="cls-2" x1="4.62" y1="8.58" x2="4.62" y2="4.23"/>
          <line class="cls-2" x1="17.62" y1="8.58" x2="17.62" y2="4.23"/>
          <line class="cls-2" x1="31.62" y1="8.58" x2="31.62" y2="4.23"/>
          <line class="cls-2" x1="46.19" y1="8.58" x2="46.19" y2="4.23"/>
          <line class="cls-2" x1="8.81" y1="52.46" x2="16.06" y2="52.46"/>
          <line class="cls-2" x1="35.94" y1="52.46" x2="43.19" y2="52.46"/>
          <line class="cls-2" x1="16.31" y1="48.2" x2="23.56" y2="48.2"/>
          <line class="cls-2" x1="44.06" y1="48.2" x2="51.31" y2="48.2"/>
          <line class="cls-2" x1="23.56" y1="44.14" x2="30.81" y2="44.14"/>
          <line class="cls-2" y1="44.14" x2="4.49" y2="44.14"/>
          <line class="cls-2" x1="30.24" y1="39.89" x2="37.49" y2="39.89"/>
          <line class="cls-2" x1="1.86" y1="39.89" x2="9.11" y2="39.89"/>
          <line class="cls-2" x1="35.49" y1="36.39" x2="42.74" y2="36.39"/>
          <line class="cls-2" x1="44.24" y1="33.01" x2="51.49" y2="33.01"/>
          <line class="cls-2" x1="51.36" y1="29.14" x2="54.15" y2="29.14"/>
          <line class="cls-2" x1="43.24" y1="25.39" x2="50.49" y2="25.39"/>
          <line class="cls-2" x1="35.86" y1="21.39" x2="43.11" y2="21.39"/>
          <line class="cls-2" x1="31.74" y1="17.64" x2="38.99" y2="17.64"/>
          <line class="cls-2" x1="23.61" y1="14.14" x2="30.86" y2="14.14"/>
          <line class="cls-2" x1="15.49" y1="10.51" x2="22.74" y2="10.51"/>
          <line class="cls-2" x1="7.36" y1="6.14" x2="14.61" y2="6.14"/>
          <line class="cls-2" x1=".24" y1="2.46" x2="7.49" y2="2.46"/>
          <line class="cls-2" x1="8.61" y1="36.27" x2="15.86" y2="36.27"/>
          <line class="cls-2" x1="15.99" y1="33.02" x2="23.24" y2="33.02"/>
          <line class="cls-2" x1="23.36" y1="29.27" x2="30.61" y2="29.27"/>
          <line class="cls-2" x1="15.86" y1="25.27" x2="23.11" y2="25.27"/>
          <line class="cls-2" x1="8.49" y1="21.27" x2="15.74" y2="21.27"/>
          <line class="cls-2" x1="3.24" y1="17.52" x2="10.49" y2="17.52"/>
          <line class="cls-2" y1="14.02" x2="3.86" y2="14.02"/>
          <line class="cls-2" x1="43.74" y1="10.4" x2="50.99" y2="10.4"/>
          <line class="cls-2" x1="35.36" y1="6.27" x2="42.61" y2="6.27"/>
          <line class="cls-2" x1="27.99" y1="2.52" x2="35.24" y2="2.52"/>
          <line class="cls-2" x1="51.31" y1="44.14" x2="54.12" y2="44.14"/>
          <line class="cls-2" x1="51.31" y1="14.02" x2="54.12" y2="14.02"/>
          <line class="cls-2" x1=".06" y1="29.14" x2="2.69" y2="29.14"/>
        </g>
      </g>
    </pattern>
    <pattern id="_641" data-name=" 641" x="0" y="0" width="54.12" height="54.12" patternTransform="translate(14363.84 -29324.59) scale(2 -2)" patternUnits="userSpaceOnUse" viewBox="0 0 54.12 54.12">
      <g>
        <rect class="cls-9" width="54.12" height="54.12"/>
        <g>
          <rect class="cls-9" width="54.12" height="54.12"/>
          <line class="cls-2" x1="54.12" y1="50.37" x2="53.93" y2="50.37"/>
          <line class="cls-2" x1="27.48" y1="50.37" x2="18.68" y2="50.37"/>
          <line class="cls-2" x1="53.93" y1="50.37" x2="46.55" y2="50.37"/>
          <line class="cls-2" x1="13.62" y1="50.37" x2="18.68" y2="50.37"/>
          <line class="cls-2" x1="4.42" y1="50.37" y2="50.37"/>
          <line class="cls-2" x1="30.67" y1="50.37" x2="46.55" y2="50.37"/>
          <line class="cls-2" x1="13.62" y1="50.37" x2="4.42" y2="50.37"/>
          <line class="cls-2" x1="27.48" y1="50.37" x2="30.67" y2="50.37"/>
          <line class="cls-2" x1="54.12" y1="46.2" y2="46.2"/>
          <line class="cls-2" x1="54.12" y1="42.01" x2="53.41" y2="42.01"/>
          <line class="cls-2" x1="41.16" y1="42.01" x2="53.41" y2="42.01"/>
          <line class="cls-2" x1="26.79" y1="42.01" x2="41.16" y2="42.01"/>
          <line class="cls-2" x1="26.79" y1="42.01" y2="42.01"/>
          <line class="cls-2" x1="20.13" y1="12.4" x2="32.26" y2="12.4"/>
          <line class="cls-2" x1="12.66" y1="12.4" x2="20.13" y2="12.4"/>
          <line class="cls-2" x1="32.26" y1="12.4" x2="41.1" y2="12.4"/>
          <line class="cls-2" x1="41.1" y1="12.4" x2="48.63" y2="12.4"/>
          <line class="cls-2" x1="5.38" y1="12.4" x2="12.66" y2="12.4"/>
          <line class="cls-2" x1="5.38" y1="12.4" y2="12.4"/>
          <line class="cls-2" x1="48.63" y1="12.4" x2="54.12" y2="12.4"/>
          <line class="cls-2" x1="38.81" y1="8.62" x2="26.41" y2="8.62"/>
          <line class="cls-2" x1="10.38" y1="8.62" x2="26.41" y2="8.62"/>
          <line class="cls-2" x1="38.81" y1="8.62" x2="53.73" y2="8.62"/>
          <line class="cls-2" x1="53.73" y1="8.62" x2="54.12" y2="8.62"/>
          <line class="cls-2" x1="10.38" y1="8.62" y2="8.62"/>
          <line class="cls-2" x1="5.93" y1="37.99" x2="31.93" y2="37.99"/>
          <line class="cls-2" x1="47" y1="37.99" x2="31.93" y2="37.99"/>
          <line class="cls-2" x1="47" y1="37.99" x2="54.12" y2="37.99"/>
          <line class="cls-2" x1="5.93" y1="37.99" y2="37.99"/>
          <line class="cls-2" x1="12.48" y1="34.71" y2="34.71"/>
          <line class="cls-2" x1="41.23" y1="34.71" x2="28.04" y2="34.71"/>
          <line class="cls-2" x1="54.12" y1="34.71" x2="53.97" y2="34.71"/>
          <line class="cls-2" x1="41.23" y1="34.71" x2="53.97" y2="34.71"/>
          <line class="cls-2" x1="28.04" y1="34.71" x2="12.48" y2="34.71"/>
          <line class="cls-2" x1="48.66" y1="31.28" x2="54.12" y2="31.28"/>
          <line class="cls-2" x1="48.66" y1="31.28" x2="20.16" y2="31.28"/>
          <line class="cls-2" x1="20.16" y1="31.28" y2="31.28"/>
          <line class="cls-2" x1="54.12" y1="27.23" y2="27.23"/>
          <line class="cls-2" x1="54.12" y1="23.43" y2="23.43"/>
          <line class="cls-2" x1="54.12" y1="19.23" y2="19.23"/>
          <line class="cls-2" x1="54.12" y1="16.01" y2="16.01"/>
          <line class="cls-2" x1="46.55" y1=".83" x2="50.27" y2=".83"/>
          <line class="cls-2" x1="54.12" y1=".83" x2="50.27" y2=".83"/>
          <line class="cls-2" x1="7.31" y1=".83" x2="10.3" y2=".83"/>
          <line class="cls-2" x1="10.3" y1=".83" x2="18.68" y2=".83"/>
          <line class="cls-2" x1="38.36" y1=".83" x2="46.55" y2=".83"/>
          <line class="cls-2" x1="18.68" y1=".83" x2="23.27" y2=".83"/>
          <line class="cls-2" x1="33.44" y1=".83" x2="23.27" y2=".83"/>
          <line class="cls-2" x1="38.36" y1=".83" x2="33.44" y2=".83"/>
          <line class="cls-2" x1="7.31" y1=".83" y2=".83"/>
          <line class="cls-2" x1="6.77" y1="54.12" x2="4.42" y2="50.37"/>
          <line class="cls-2" x1="18.68" y1="54.12" x2="18.68" y2="50.37"/>
          <line class="cls-2" x1="30.67" y1="50.37" x2="32.94" y2="54.12"/>
          <line class="cls-2" x1="46.55" y1="54.12" x2="46.55" y2="50.37"/>
          <line class="cls-2" x1="13.62" y1="50.37" x2="11.1" y2="46.21"/>
          <line class="cls-2" x1="27.48" y1="50.37" x2="27.48" y2="50.43"/>
          <line class="cls-2" x1="27.48" y1="50.37" x2="27.48" y2="46.21"/>
          <line class="cls-2" x1="42.19" y1="50.31" x2="39.6" y2="46.21"/>
          <line class="cls-2" x1="53.93" y1="50.37" x2="53.93" y2="46.21"/>
          <line class="cls-2" x1="53.93" y1="50.43" x2="53.93" y2="50.37"/>
          <line class="cls-2" x1="5.54" y1="42.02" x2="8.12" y2="46.18"/>
          <line class="cls-2" x1="20.29" y1="42.02" x2="20.29" y2="46.07"/>
          <line class="cls-2" x1="32.35" y1="42.02" x2="34.88" y2="46.18"/>
          <line class="cls-2" x1="48.79" y1="42.02" x2="48.79" y2="46.07"/>
          <line class="cls-2" x1="38.66" y1="38.02" x2="41.16" y2="42.01"/>
          <line class="cls-2" x1="41.16" y1="42.01" x2="41.19" y2="42.06"/>
          <line class="cls-2" x1="26.79" y1="42.01" x2="26.79" y2="42.02"/>
          <line class="cls-2" x1="26.79" y1="42.01" x2="26.79" y2="38.02"/>
          <line class="cls-2" x1="10.41" y1="38.02" x2="12.88" y2="42"/>
          <line class="cls-2" x1="53.41" y1="38.02" x2="53.41" y2="42.01"/>
          <line class="cls-2" x1="53.41" y1="42.02" x2="53.41" y2="42.01"/>
          <line class="cls-2" x1="47" y1="37.99" x2="45.05" y2="34.72"/>
          <line class="cls-2" x1="47" y1="37.99" x2="47" y2="38"/>
          <line class="cls-2" x1="31.93" y1="34.72" x2="31.93" y2="37.99"/>
          <line class="cls-2" x1="31.93" y1="37.99" x2="31.93" y2="38.02"/>
          <line class="cls-2" x1="17.18" y1="34.72" x2="19.19" y2="37.93"/>
          <line class="cls-2" x1="5.93" y1="37.99" x2="5.93" y2="38.02"/>
          <line class="cls-2" x1="5.93" y1="37.99" x2="5.93" y2="34.72"/>
          <line class="cls-2" x1="12.48" y1="34.71" x2="12.48" y2="31.29"/>
          <line class="cls-2" x1="12.48" y1="34.71" x2="12.48" y2="34.72"/>
          <line class="cls-2" x1="28.04" y1="34.71" x2="25.98" y2="31.29"/>
          <line class="cls-2" x1="28.04" y1="34.71" x2="28.06" y2="34.74"/>
          <line class="cls-2" x1="41.23" y1="34.71" x2="41.23" y2="34.72"/>
          <line class="cls-2" x1="41.23" y1="34.71" x2="41.23" y2="31.29"/>
          <line class="cls-2" x1="51.81" y1="31.31" x2="53.97" y2="34.71"/>
          <line class="cls-2" x1="53.98" y1="34.72" x2="53.97" y2="34.71"/>
          <line class="cls-2" x1="5.16" y1="27.24" x2="7.69" y2="31.24"/>
          <line class="cls-2" x1="20.16" y1="31.28" x2="20.16" y2="27.24"/>
          <line class="cls-2" x1="20.16" y1="31.28" x2="20.16" y2="31.29"/>
          <line class="cls-2" x1="34.81" y1="31.24" x2="32.29" y2="27.24"/>
          <line class="cls-2" x1="48.66" y1="31.28" x2="48.66" y2="31.29"/>
          <line class="cls-2" x1="48.66" y1="31.28" x2="48.66" y2="27.24"/>
          <line class="cls-2" x1="38.54" y1="23.45" x2="40.81" y2="27.18"/>
          <line class="cls-2" x1="26.71" y1="23.45" x2="26.71" y2="27.18"/>
          <line class="cls-2" x1="10.21" y1="23.45" x2="12.5" y2="27.18"/>
          <line class="cls-2" x1="53.27" y1="23.45" x2="53.27" y2="27.18"/>
          <line class="cls-2" x1="4.03" y1="19.24" x2="6.56" y2="23.31"/>
          <line class="cls-2" x1="18.53" y1="19.24" x2="18.53" y2="23.38"/>
          <line class="cls-2" x1="30.65" y1="19.24" x2="33.25" y2="23.37"/>
          <line class="cls-2" x1="46.4" y1="19.24" x2="46.4" y2="23.38"/>
          <line class="cls-2" x1="40.7" y1="16.02" x2="42.62" y2="19.18"/>
          <line class="cls-2" x1="28.05" y1="16.02" x2="28.05" y2="19.18"/>
          <line class="cls-2" x1="11.43" y1="16.02" x2="13.31" y2="19.12"/>
          <line class="cls-2" x1=".51" y1="16.02" x2=".51" y2="19.18"/>
          <line class="cls-2" x1="5.38" y1="12.4" x2="7.69" y2="16"/>
          <line class="cls-2" x1="20.13" y1="12.4" x2="20.13" y2="15.96"/>
          <line class="cls-2" x1="32.26" y1="12.4" x2="34.5" y2="16"/>
          <line class="cls-2" x1="48.63" y1="12.4" x2="48.63" y2="15.96"/>
          <line class="cls-2" x1="38.81" y1="8.62" x2="41.1" y2="12.4"/>
          <line class="cls-2" x1="41.1" y1="12.4" x2="41.12" y2="12.43"/>
          <line class="cls-2" x1="38.81" y1="8.62" x2="38.78" y2="8.58"/>
          <line class="cls-2" x1="26.41" y1="8.62" x2="26.41" y2="8.58"/>
          <line class="cls-2" x1="26.41" y1="8.62" x2="26.41" y2="12.34"/>
          <line class="cls-2" x1="10.38" y1="8.62" x2="10.36" y2="8.58"/>
          <line class="cls-2" x1="10.38" y1="8.62" x2="12.66" y2="12.4"/>
          <line class="cls-2" x1="12.66" y1="12.4" x2="12.69" y2="12.43"/>
          <line class="cls-2" x1="53.73" y1="8.62" x2="53.73" y2="8.58"/>
          <line class="cls-2" x1="53.73" y1="8.62" x2="53.73" y2="12.34"/>
          <line class="cls-2" x1="38.36" y1="4.21" x2="52.35" y2="4.21"/>
          <line class="cls-2" x1="38.36" y1="4.21" x2="25.29" y2="4.21"/>
          <line class="cls-2" x1="10.3" y1="4.21" x2="25.29" y2="4.21"/>
          <line class="cls-2" x1="54.12" y1="4.21" x2="52.35" y2="4.21"/>
          <line class="cls-2" x1="10.3" y1="4.21" y2="4.21"/>
          <line class="cls-2" x1="10.3" y1="4.21" x2="10.3" y2="4.23"/>
          <line class="cls-2" x1="10.3" y1=".77" x2="10.3" y2=".83"/>
          <line class="cls-2" x1="10.3" y1="4.21" x2="10.3" y2=".83"/>
          <line class="cls-2" x1="25.31" y1="4.24" x2="25.29" y2="4.21"/>
          <line class="cls-2" x1="25.29" y1="4.21" x2="23.27" y2=".83"/>
          <line class="cls-2" x1="23.23" y1=".77" x2="23.27" y2=".83"/>
          <line class="cls-2" x1="38.36" y1=".83" x2="38.36" y2=".77"/>
          <line class="cls-2" x1="38.36" y1="4.21" x2="38.36" y2="4.23"/>
          <line class="cls-2" x1="38.36" y1="4.21" x2="38.36" y2=".83"/>
          <line class="cls-2" x1="52.38" y1="4.24" x2="52.35" y2="4.21"/>
          <line class="cls-2" x1="52.35" y1="4.21" x2="50.27" y2=".83"/>
          <line class="cls-2" x1="50.23" y1=".77" x2="50.27" y2=".83"/>
          <line class="cls-2" x1="4.57" y1="4.23" x2="4.57" y2="8.58"/>
          <line class="cls-2" x1="18.75" y1="8.5" x2="16.07" y2="4.23"/>
          <line class="cls-2" x1="31.57" y1="8.58" x2="31.57" y2="4.23"/>
          <line class="cls-2" x1="47.25" y1="8.56" x2="44.63" y2="4.23"/>
          <line class="cls-2" x1="18.68" y1=".83" x2="18.68"/>
          <line class="cls-2" x1="46.55" y1=".83" x2="46.55"/>
          <line class="cls-2" x1="7.31" y1=".83" x2="6.79"/>
          <line class="cls-2" x1="7.31" y1=".83" x2="7.38" y2=".93"/>
          <line class="cls-2" x1="32.93" x2="33.44" y2=".83"/>
          <line class="cls-2" x1="33.5" y1=".93" x2="33.44" y2=".83"/>
        </g>
      </g>
    </pattern>
  </defs>
  <g id="Layer_1-2" data-name="Layer 1">
    <g id="Layer_1-2" data-name="Layer 1-2">
      <g id="Sand_Clay" data-name="Sand Clay">
        <path class="cls-10" d="M133,69.34v298H2V69.34h131M134,68.34H1v300h133V68.34h0Z"/>
      </g>
      <polygon class="cls-6" points="133 367.34 133 69.34 1 68.34 2 367.34 133 367.34"/>
      <rect class="cls-3" x="2" y="368.34" width="131" height="398"/>
      <path class="cls-1" d="M143,69.84h6-6Z"/>
      <line class="cls-5" x1="142" y1="68.34" x2="142" y2="793.34"/>
      <line class="cls-1" x1="144" y1="368.34" x2="150" y2="368.34"/>
      <line class="cls-1" x1="143.47" y1="767.07" x2="149.47" y2="767.07"/>
      <rect class="cls-4" x="2" y="765.92" width="131" height="136"/>
      <text/>
      <text class="cls-11" transform="translate(244.51 548.25)"><tspan x="0" y="0">Limes</tspan><tspan class="cls-17" x="51.18" y="0">t</tspan><tspan x="58" y="0">one with Cl</tspan><tspan class="cls-15" x="156.72" y="0">a</tspan><tspan x="166.68" y="0">y</tspan><tspan class="cls-19" x="11.58" y="25.2">L</tspan><tspan class="cls-16" x="21.2" y="25.2">o</tspan><tspan class="cls-27" x="32.58" y="25.2">w</tspan><tspan x="47.83" y="25.2">er</tspan><tspan class="cls-22" x="65.21" y="25.2"> </tspan><tspan class="cls-21" x="68.81" y="25.2">T</tspan><tspan x="77.75" y="25.2">o</tspan><tspan class="cls-18" x="89.28" y="25.2">r</tspan><tspan class="cls-27" x="96.23" y="25.2">r</tspan><tspan x="102.89" y="25.2">e</tspan><tspan class="cls-24" x="113.41" y="25.2">y</tspan><tspan x="123.22" y="25.2">a </tspan><tspan class="cls-31" x="137.79" y="25.2">F</tspan><tspan x="147.47" y="25.2">m</tspan></text>
      <text class="cls-11" transform="translate(271.02 205.16)"><tspan class="cls-23" x="0" y="0">S</tspan><tspan class="cls-14" x="10.42" y="0">and and Cl</tspan><tspan class="cls-15" x="103.7" y="0">a</tspan><tspan x="113.65" y="0">y</tspan><tspan x="-15.55" y="25.2">Upper</tspan><tspan class="cls-22" x="39.32" y="25.2"> </tspan><tspan class="cls-21" x="42.91" y="25.2">T</tspan><tspan x="51.86" y="25.2">o</tspan><tspan class="cls-18" x="63.39" y="25.2">r</tspan><tspan class="cls-27" x="70.34" y="25.2">r</tspan><tspan x="77" y="25.2">e</tspan><tspan class="cls-24" x="87.52" y="25.2">y</tspan><tspan x="97.32" y="25.2">a </tspan><tspan class="cls-31" x="111.9" y="25.2">F</tspan><tspan x="121.58" y="25.2">m</tspan></text>
      <text class="cls-11" transform="translate(241.82 829.12)"><tspan class="cls-18" x="0" y="0">D</tspan><tspan x="14.07" y="0">olomitic Limes</tspan><tspan class="cls-17" x="141.41" y="0">t</tspan><tspan x="148.24" y="0">one</tspan><tspan class="cls-26" x="36.04" y="25.2">St</tspan><tspan x="53.21" y="25.2">. </tspan><tspan class="cls-20" x="62.01" y="25.2">M</tspan><tspan x="79.02" y="25.2">a</tspan><tspan class="cls-18" x="89.14" y="25.2">r</tspan><tspan x="96.09" y="25.2">ks </tspan><tspan class="cls-31" x="118.71" y="25.2">F</tspan><tspan x="128.39" y="25.2">m</tspan><tspan x="-8.91" y="50.4">Upper </tspan><tspan class="cls-25" x="50.41" y="50.4">F</tspan><tspan x="60.28" y="50.4">lo</tspan><tspan class="cls-18" x="76.76" y="50.4">r</tspan><tspan x="83.72" y="50.4">idan </tspan><tspan class="cls-28" x="126.7" y="50.4">A</tspan><tspan x="139.3" y="50.4">qui</tspan><tspan class="cls-30" x="167.61" y="50.4">f</tspan><tspan x="173.47" y="50.4">er</tspan></text>
      <text class="cls-11" transform="translate(167.62 80.42)"><tspan x="0" y="0">0 </tspan><tspan class="cls-32" x="15.22" y="0">f</tspan><tspan class="cls-14" x="21.59" y="0">t</tspan></text>
      <text class="cls-11" transform="translate(162.24 374.46)"><tspan x="0" y="0">60 </tspan><tspan class="cls-32" x="26" y="0">f</tspan><tspan class="cls-14" x="32.36" y="0">t</tspan></text>
      <text class="cls-12" transform="translate(164.29 772.48)"><tspan x="0" y="0">140 </tspan><tspan class="cls-29" x="35.02" y="0">f</tspan><tspan x="41.08" y="0">t</tspan></text>
      <g>
        <line class="cls-7" x1="211.47" y1="822.76" x2="211.47" y2="887.45"/>
        <path class="cls-10" d="M211.47,882.6l9.73-5.92.22.33-6.3,15.86c-1.22,5.53-2.43,11.05-3.65,16.58-1.22-5.53-2.43-11.05-3.65-16.58l-6.3-15.86.17-.33,9.78,5.92Z"/>
      </g>
      <text class="cls-11" transform="translate(149.63 17.58)"><tspan class="cls-13" x="0" y="0">W</tspan><tspan x="17.07" y="0">ell </tspan><tspan class="cls-18" x="-8.82" y="25.2">D</tspan><tspan x="5.25" y="25.2">epth</tspan></text>
    </g>
  </g>
</svg>